<?xml version="1.0" standalone="no"?>
<!DOCTYPE svg PUBLIC "-//W3C//DTD SVG 20010904//EN"
 "http://www.w3.org/TR/2001/REC-SVG-20010904/DTD/svg10.dtd">
<svg version="1.0" xmlns="http://www.w3.org/2000/svg"
 width="512.000000pt" height="512.000000pt" viewBox="0 0 512.000000 512.000000"
 preserveAspectRatio="xMidYMid meet">
<metadata>
Created by potrace 1.14, written by Peter Selinger 2001-2017
</metadata>
<g transform="translate(0.000000,512.000000) scale(0.100000,-0.100000)"
fill="#000000" stroke="none">
<path d="M2496 5113 c-28 -7 -87 -46 -113 -74 -98 -106 -59 -301 71 -363 l31
-15 -1 -168 c-1 -92 -2 -170 -3 -173 0 -4 -11 -6 -23 -6 -13 0 -55 -4 -95 -8
l-71 -7 -12 58 c-24 113 -31 132 -53 148 -34 24 -72 19 -97 -12 -22 -28 -23
-50 -5 -133 20 -97 21 -94 -32 -107 -26 -7 -67 -18 -91 -25 -33 -10 -45 -10
-50 -1 -4 7 -34 77 -66 157 l-59 144 27 35 c93 122 49 297 -89 358 -117 52
-255 -1 -307 -118 -70 -158 37 -321 218 -332 10 -1 27 -32 53 -101 6 -14 28
-68 49 -120 l39 -95 -86 -46 -86 -47 -43 66 c-23 36 -49 73 -58 83 -23 25 -60
28 -92 9 -44 -27 -45 -61 -4 -128 19 -31 43 -71 54 -88 l18 -31 -27 -19 c-16
-10 -34 -24 -41 -31 -8 -7 -29 -25 -49 -40 l-34 -26 -121 120 -121 121 12 32
c51 149 -71 313 -230 307 -136 -6 -232 -113 -224 -253 9 -145 163 -249 300
-204 l37 12 119 -118 c66 -65 119 -122 119 -126 0 -4 -17 -26 -37 -50 -21 -24
-48 -56 -60 -71 l-22 -28 -75 50 c-83 56 -123 64 -156 31 -21 -21 -24 -31 -20
-65 2 -25 19 -42 101 -97 l66 -44 -23 -41 c-12 -23 -33 -62 -46 -87 l-23 -45
-154 65 c-85 35 -155 65 -157 66 -1 2 -5 23 -9 48 -23 157 -184 246 -328 182
-175 -79 -186 -324 -18 -416 84 -45 182 -38 258 20 l36 27 106 -43 c58 -24
129 -54 157 -66 l52 -23 -24 -73 c-13 -40 -24 -78 -24 -85 0 -23 -20 -24 -110
-7 -89 17 -91 17 -118 -3 -32 -24 -40 -65 -18 -98 15 -23 52 -38 121 -48 17
-3 43 -8 58 -12 l28 -7 -7 -67 c-4 -36 -8 -76 -8 -88 -1 -12 -5 -26 -10 -30
-4 -4 -82 -8 -172 -8 l-165 -1 -16 33 c-8 18 -31 47 -51 64 -69 61 -148 78
-231 49 -159 -54 -211 -247 -100 -373 64 -74 156 -98 249 -67 56 19 111 66
134 114 l15 31 163 0 c90 0 168 -3 174 -7 6 -4 11 -26 12 -50 1 -24 4 -64 8
-90 3 -27 2 -48 -3 -49 -4 0 -15 -2 -23 -4 -8 -2 -43 -9 -78 -15 -83 -16 -114
-41 -110 -88 2 -24 11 -41 30 -55 28 -21 29 -21 119 -3 50 9 94 15 97 11 8 -8
52 -147 52 -166 0 -12 -44 -34 -150 -78 -82 -33 -152 -61 -156 -61 -3 0 -21
12 -40 27 -116 88 -285 49 -349 -82 -92 -187 82 -391 278 -326 90 31 151 104
162 197 3 21 7 39 9 41 1 2 72 32 157 67 l154 64 36 -69 c20 -38 41 -75 48
-82 13 -16 5 -25 -85 -85 -65 -43 -88 -80 -73 -119 9 -26 38 -43 72 -43 13 0
59 23 102 50 l77 51 18 -23 c9 -13 36 -45 59 -73 22 -27 41 -52 41 -55 0 -3
-54 -59 -119 -124 l-119 -119 -32 12 c-94 32 -210 -7 -267 -92 -110 -164 17
-379 216 -363 145 12 247 169 200 306 l-12 32 119 119 c110 110 137 131 146
111 2 -5 112 -100 126 -108 2 -1 -19 -36 -46 -76 -27 -41 -52 -83 -54 -93 -12
-53 55 -106 103 -82 12 7 46 46 74 88 l51 76 86 -46 86 -46 -59 -140 c-32 -77
-58 -145 -58 -152 -1 -16 -12 -22 -57 -29 -163 -24 -251 -181 -185 -329 78
-176 332 -182 417 -10 43 88 37 166 -17 245 l-31 44 43 106 c23 58 53 128 65
156 l23 52 73 -24 c40 -13 78 -24 85 -24 23 0 24 -19 6 -110 -17 -89 -17 -90
4 -118 29 -39 83 -43 112 -6 11 15 21 32 21 39 0 7 7 45 16 84 l16 72 71 -7
c88 -9 111 -11 117 -13 3 0 5 -78 5 -171 l0 -170 -30 -16 c-139 -72 -170 -260
-62 -372 39 -41 86 -62 153 -69 121 -12 239 91 248 218 7 84 -52 186 -128 223
l-31 15 0 170 c0 94 2 172 5 172 6 2 29 4 118 13 l70 7 12 -58 c23 -109 30
-130 49 -147 28 -25 79 -17 104 16 20 27 20 29 3 119 -10 50 -15 93 -12 96 5
5 173 62 184 63 1 0 2 -6 2 -13 0 -7 11 -37 25 -65 14 -29 25 -58 25 -65 0 -7
4 -17 9 -22 9 -11 61 -140 61 -153 0 -4 -11 -20 -25 -36 -91 -106 -51 -287 77
-350 161 -79 341 31 340 208 0 120 -94 223 -210 230 l-37 3 -67 159 c-36 87
-66 159 -65 160 29 17 162 84 168 84 4 0 29 -31 55 -70 56 -84 64 -91 105 -92
39 -1 69 30 69 72 0 16 -21 59 -51 104 l-50 77 28 22 c15 12 47 39 71 60 24
20 46 37 50 37 4 0 61 -53 126 -119 l118 -119 -12 -37 c-30 -92 14 -213 97
-265 165 -105 374 23 358 219 -11 144 -164 246 -302 200 l-35 -11 -119 118
c-66 65 -119 122 -119 126 0 3 6 13 13 20 10 11 96 116 104 127 1 2 36 -20 77
-48 81 -55 119 -63 155 -33 29 22 31 77 5 101 -10 10 -49 39 -86 63 l-66 45
25 44 c14 24 35 63 47 85 l22 42 153 -63 c84 -35 154 -65 156 -67 2 -2 6 -20
9 -40 26 -164 173 -253 320 -193 182 74 199 325 28 418 -83 45 -183 39 -256
-16 -19 -15 -38 -27 -43 -27 -8 0 -213 85 -279 115 l-32 15 26 82 c14 46 28
87 32 91 4 5 48 0 99 -9 90 -18 91 -18 119 3 18 13 28 31 30 52 5 54 -27 77
-133 95 -16 3 -42 8 -58 12 l-27 6 6 66 c3 37 8 76 9 87 2 11 4 25 4 30 1 7
63 10 172 10 l170 0 15 -31 c36 -74 136 -133 217 -128 126 7 227 114 227 240
0 84 -67 180 -148 210 -61 24 -138 22 -189 -5 -43 -21 -113 -95 -113 -118 0
-7 -3 -14 -7 -14 -24 -5 -343 -4 -344 1 0 3 -2 12 -3 20 -2 8 -6 50 -10 92
l-7 76 58 12 c102 20 129 29 147 49 25 28 17 79 -16 104 -27 20 -29 20 -118 3
-90 -17 -110 -16 -110 7 0 7 -11 45 -24 85 l-24 73 52 23 c28 12 99 42 157 66
l106 43 37 -28 c71 -54 170 -64 247 -25 112 58 162 192 111 301 -25 53 -37 67
-82 101 -85 62 -211 53 -294 -20 -31 -28 -64 -95 -70 -141 -3 -24 -7 -46 -9
-47 -2 -2 -48 -22 -102 -45 -55 -22 -118 -49 -140 -59 -71 -31 -67 -33 -112
54 -24 45 -43 84 -43 88 0 4 31 28 70 54 38 25 75 53 81 60 19 23 13 77 -12
96 -35 29 -70 22 -150 -31 -41 -26 -78 -46 -84 -44 -5 2 -20 18 -32 36 -13 17
-37 49 -55 70 l-32 38 121 121 121 121 32 -12 c104 -36 233 16 278 111 49 101
34 203 -40 276 -121 121 -327 75 -384 -85 -16 -47 -18 -110 -3 -153 l12 -32
-119 -119 c-65 -65 -121 -119 -124 -119 -4 0 -15 8 -26 18 -16 15 -111 91
-123 99 -2 1 19 36 48 78 60 89 67 134 26 161 -30 20 -69 21 -90 4 -8 -7 -45
-58 -83 -115 l-68 -103 -70 37 c-100 53 -94 47 -79 79 7 15 43 100 80 190 37
89 70 162 74 163 3 0 21 2 39 4 78 8 158 69 189 144 21 50 20 129 -4 182 -80
180 -332 189 -420 14 -42 -81 -33 -179 22 -251 l28 -37 -43 -106 c-24 -58 -53
-129 -66 -158 l-23 -52 -49 18 c-27 10 -65 21 -85 25 -20 4 -39 11 -42 16 -3
5 2 50 11 100 16 89 16 92 -3 118 -13 17 -31 28 -51 30 -49 5 -76 -30 -91
-114 -21 -115 -13 -106 -89 -98 -37 4 -76 8 -87 8 -11 1 -25 4 -30 8 -7 4 -10
70 -10 172 l0 166 30 16 c136 70 170 245 71 360 -54 63 -162 98 -240 77z"/>
</g>
</svg>
